<?xml version="1.0" encoding="UTF-8" standalone="no"?><svg xmlns="http://www.w3.org/2000/svg" xmlns:xlink="http://www.w3.org/1999/xlink" clip-rule="evenodd" stroke-miterlimit="10" viewBox="0 0 1920 1080"><desc>SVG generated by Keynote</desc><defs></defs><g transform="matrix(1.00, 0.00, -0.00, -1.00, 0.0, 1080.0)"><path d="M 0.0 1080.0 L 1920.0 1080.0 L 1920.0 0.0 L 0.0 0.0 Z M 0.0 1080.0 " fill="#FEFFFF"></path><g><clipPath id="clip0x6180004aee20"><path d="M 0.0 1080.0 L 1920.0 1080.0 L 1920.0 0.0 L 0.0 0.0 Z M 0.0 1080.0 "></path></clipPath><g clip-path="url(#clip0x6180004aee20)"><image xlink:href="../../55BFAB8F-39D9-4B62-A21A-CEBB09102910/assets/94F98822B5E8A56339A6230C305EA015.png" width="986.00" height="990.00" transform="matrix(1.95, 0.00, -0.00, -1.95, 0.0, 1503.9)"></image></g></g><text xml:space="preserve" font-family="LucidaGrande,Lucida Grande" font-size="116.0" fill="#FEFFFE" transform="matrix(1.00, 0.00, -0.00, -1.00, 6.5, 986.8)">„</text><text xml:space="preserve" font-family="Weston-Free,Weston Free" font-size="116.0" fill="#00872A" transform="matrix(1.00, 0.00, -0.00, -1.00, 52.6, 986.8)">R</text><text xml:space="preserve" font-family="Weston-Free,Weston Free" font-size="116.0" fill="#00872A" transform="matrix(1.00, 0.00, -0.00, -1.00, 145.1, 986.8)">E</text><text xml:space="preserve" font-family="Weston-Free,Weston Free" font-size="116.0" fill="#00872A" transform="matrix(1.00, 0.00, -0.00, -1.00, 231.6, 986.8)">A</text><text xml:space="preserve" font-family="Weston-Free,Weston Free" font-size="116.0" fill="#00872A" transform="matrix(1.00, 0.00, -0.00, -1.00, 322.8, 986.8)">C</text><text xml:space="preserve" font-family="Weston-Free,Weston Free" font-size="116.0" fill="#00872A" transform="matrix(1.00, 0.00, -0.00, -1.00, 406.4, 986.8)">T</text><text xml:space="preserve" font-family="Weston-Free,Weston Free" font-size="116.0" fill="#00872A" transform="matrix(1.00, 0.00, -0.00, -1.00, 489.8, 986.8)">I</text><text xml:space="preserve" font-family="Weston-Free,Weston Free" font-size="116.0" fill="#00872A" transform="matrix(1.00, 0.00, -0.00, -1.00, 530.4, 986.8)">V</text><text xml:space="preserve" font-family="Weston-Free,Weston Free" font-size="116.0" fill="#00872A" transform="matrix(1.00, 0.00, -0.00, -1.00, 623.2, 986.8)">E</text><text xml:space="preserve" font-family="Weston-Free,Weston Free" font-size="116.0" fill="#00872A" transform="matrix(1.00, 0.00, -0.00, -1.00, 707.9, 986.8)"> </text><text xml:space="preserve" font-family="Weston-Free,Weston Free" font-size="116.0" fill="#00872A" transform="matrix(1.00, 0.00, -0.00, -1.00, 749.5, 986.8)">S</text><text xml:space="preserve" font-family="Weston-Free,Weston Free" font-size="116.0" fill="#00872A" transform="matrix(1.00, 0.00, -0.00, -1.00, 838.4, 986.8)">T</text><text xml:space="preserve" font-family="Weston-Free,Weston Free" font-size="116.0" fill="#00872A" transform="matrix(1.00, 0.00, -0.00, -1.00, 917.3, 986.8)">R</text><text xml:space="preserve" font-family="Weston-Free,Weston Free" font-size="116.0" fill="#00872A" transform="matrix(1.00, 0.00, -0.00, -1.00, 1009.7, 986.8)">E</text><text xml:space="preserve" font-family="Weston-Free,Weston Free" font-size="116.0" fill="#00872A" transform="matrix(1.00, 0.00, -0.00, -1.00, 1096.3, 986.8)">A</text><text xml:space="preserve" font-family="Weston-Free,Weston Free" font-size="116.0" fill="#00872A" transform="matrix(1.00, 0.00, -0.00, -1.00, 1189.9, 986.8)">M</text><text xml:space="preserve" font-family="Weston-Free,Weston Free" font-size="116.0" fill="#00872A" transform="matrix(1.00, 0.00, -0.00, -1.00, 1293.3, 986.8)">S</text><text xml:space="preserve" font-family="Weston-Free,Weston Free" font-size="116.0" fill="#00872A" transform="matrix(1.00, 0.00, -0.00, -1.00, 1384.1, 986.8)"> </text><text xml:space="preserve" font-family="Weston-Free,Weston Free" font-size="116.0" fill="#00872A" transform="matrix(1.00, 0.00, -0.00, -1.00, 1425.7, 986.8)">A</text><text xml:space="preserve" font-family="Weston-Free,Weston Free" font-size="116.0" fill="#00872A" transform="matrix(1.00, 0.00, -0.00, -1.00, 1519.3, 986.8)">R</text><text xml:space="preserve" font-family="Weston-Free,Weston Free" font-size="116.0" fill="#00872A" transform="matrix(1.00, 0.00, -0.00, -1.00, 1611.8, 986.8)">E</text><text xml:space="preserve" font-family="Weston-Free,Weston Free" font-size="116.0" fill="#00872A" transform="matrix(1.00, 0.00, -0.00, -1.00, 1696.4, 986.8)"> </text><text xml:space="preserve" font-family="Weston-Free,Weston Free" font-size="116.0" fill="#00872A" transform="matrix(1.00, 0.00, -0.00, -1.00, 6.5, 846.2)">T</text><text xml:space="preserve" font-family="Weston-Free,Weston Free" font-size="116.0" fill="#00872A" transform="matrix(1.00, 0.00, -0.00, -1.00, 87.8, 846.2)">W</text><text xml:space="preserve" font-family="Weston-Free,Weston Free" font-size="116.0" fill="#00872A" transform="matrix(1.00, 0.00, -0.00, -1.00, 198.5, 846.2)">O</text><text xml:space="preserve" font-family="Weston-Free,Weston Free" font-size="116.0" fill="#00872A" transform="matrix(1.00, 0.00, -0.00, -1.00, 290.1, 846.2)"> </text><text xml:space="preserve" font-family="Weston-Free,Weston Free" font-size="116.0" fill="#00872A" transform="matrix(1.00, 0.00, -0.00, -1.00, 331.8, 846.2)">W</text><text xml:space="preserve" font-family="Weston-Free,Weston Free" font-size="116.0" fill="#00872A" transform="matrix(1.00, 0.00, -0.00, -1.00, 437.0, 846.2)">A</text><text xml:space="preserve" font-family="Weston-Free,Weston Free" font-size="116.0" fill="#00872A" transform="matrix(1.00, 0.00, -0.00, -1.00, 520.6, 846.2)">Y</text><text xml:space="preserve" font-family="Weston-Free,Weston Free" font-size="116.0" fill="#00872A" transform="matrix(1.00, 0.00, -0.00, -1.00, 592.8, 846.2)">,</text><text xml:space="preserve" font-family="Weston-Free,Weston Free" font-size="116.0" fill="#00872A" transform="matrix(1.00, 0.00, -0.00, -1.00, 620.1, 846.2)"> </text><text xml:space="preserve" font-family="Weston-Free,Weston Free" font-size="116.0" fill="#00872A" transform="matrix(1.00, 0.00, -0.00, -1.00, 661.8, 846.2)">I</text><text xml:space="preserve" font-family="Weston-Free,Weston Free" font-size="116.0" fill="#00872A" transform="matrix(1.00, 0.00, -0.00, -1.00, 702.3, 846.2)">T</text><text xml:space="preserve" font-family="LucidaGrande,Lucida Grande" font-size="116.0" fill="#00872A" transform="matrix(1.00, 0.00, -0.00, -1.00, 781.2, 846.2)">'</text><text xml:space="preserve" font-family="Weston-Free,Weston Free" font-size="116.0" fill="#00872A" transform="matrix(1.00, 0.00, -0.00, -1.00, 807.7, 846.2)">S</text><text xml:space="preserve" font-family="Weston-Free,Weston Free" font-size="116.0" fill="#00872A" transform="matrix(1.00, 0.00, -0.00, -1.00, 898.4, 846.2)"> </text><text xml:space="preserve" font-family="Weston-Free,Weston Free" font-size="116.0" fill="#00872A" transform="matrix(1.00, 0.00, -0.00, -1.00, 940.1, 846.2)">N</text><text xml:space="preserve" font-family="Weston-Free,Weston Free" font-size="116.0" fill="#00872A" transform="matrix(1.00, 0.00, -0.00, -1.00, 1035.7, 846.2)">O</text><text xml:space="preserve" font-family="Weston-Free,Weston Free" font-size="116.0" fill="#00872A" transform="matrix(1.00, 0.00, -0.00, -1.00, 1126.4, 846.2)">T</text><text xml:space="preserve" font-family="Weston-Free,Weston Free" font-size="116.0" fill="#00872A" transform="matrix(1.00, 0.00, -0.00, -1.00, 1205.2, 846.2)"> </text><text xml:space="preserve" font-family="Weston-Free,Weston Free" font-size="116.0" fill="#00872A" transform="matrix(1.00, 0.00, -0.00, -1.00, 1246.9, 846.2)">J</text><text xml:space="preserve" font-family="Weston-Free,Weston Free" font-size="116.0" fill="#00872A" transform="matrix(1.00, 0.00, -0.00, -1.00, 1315.9, 846.2)">U</text><text xml:space="preserve" font-family="Weston-Free,Weston Free" font-size="116.0" fill="#00872A" transform="matrix(1.00, 0.00, -0.00, -1.00, 1410.5, 846.2)">S</text><text xml:space="preserve" font-family="Weston-Free,Weston Free" font-size="116.0" fill="#00872A" transform="matrix(1.00, 0.00, -0.00, -1.00, 1499.3, 846.2)">T</text><text xml:space="preserve" font-family="Weston-Free,Weston Free" font-size="116.0" fill="#00872A" transform="matrix(1.00, 0.00, -0.00, -1.00, 1578.2, 846.2)"> </text><text xml:space="preserve" font-family="Weston-Free,Weston Free" font-size="116.0" fill="#00872A" transform="matrix(1.00, 0.00, -0.00, -1.00, 6.5, 707.2)">Y</text><text xml:space="preserve" font-family="Weston-Free,Weston Free" font-size="116.0" fill="#00872A" transform="matrix(1.00, 0.00, -0.00, -1.00, 90.5, 707.2)">O</text><text xml:space="preserve" font-family="Weston-Free,Weston Free" font-size="116.0" fill="#00872A" transform="matrix(1.00, 0.00, -0.00, -1.00, 178.4, 707.2)">U</text><text xml:space="preserve" font-family="Weston-Free,Weston Free" font-size="116.0" fill="#FEFFFE" transform="matrix(1.00, 0.00, -0.00, -1.00, 278.4, 707.2)">,</text><text xml:space="preserve" font-family="Weston-Free,Weston Free" font-size="116.0" fill="#FEFFFE" transform="matrix(1.00, 0.00, -0.00, -1.00, 305.8, 707.2)"> </text><text xml:space="preserve" font-family="Weston-Free,Weston Free" font-size="116.0" fill="#F5D327" transform="matrix(1.00, 0.00, -0.00, -1.00, 347.4, 707.2)">T</text><text xml:space="preserve" font-family="Weston-Free,Weston Free" font-size="116.0" fill="#F5D327" transform="matrix(1.00, 0.00, -0.00, -1.00, 426.3, 707.2)">H</text><text xml:space="preserve" font-family="Weston-Free,Weston Free" font-size="116.0" fill="#F5D327" transform="matrix(1.00, 0.00, -0.00, -1.00, 521.9, 707.2)">E</text><text xml:space="preserve" font-family="Weston-Free,Weston Free" font-size="116.0" fill="#F5D327" transform="matrix(1.00, 0.00, -0.00, -1.00, 606.6, 707.2)"> </text><text xml:space="preserve" font-family="Weston-Free,Weston Free" font-size="116.0" fill="#F5D327" transform="matrix(1.00, 0.00, -0.00, -1.00, 648.2, 707.2)">S</text><text xml:space="preserve" font-family="Weston-Free,Weston Free" font-size="116.0" fill="#F5D327" transform="matrix(1.00, 0.00, -0.00, -1.00, 737.1, 707.2)">T</text><text xml:space="preserve" font-family="Weston-Free,Weston Free" font-size="116.0" fill="#F5D327" transform="matrix(1.00, 0.00, -0.00, -1.00, 816.0, 707.2)">R</text><text xml:space="preserve" font-family="Weston-Free,Weston Free" font-size="116.0" fill="#F5D327" transform="matrix(1.00, 0.00, -0.00, -1.00, 908.4, 707.2)">E</text><text xml:space="preserve" font-family="Weston-Free,Weston Free" font-size="116.0" fill="#F5D327" transform="matrix(1.00, 0.00, -0.00, -1.00, 994.9, 707.2)">A</text><text xml:space="preserve" font-family="Weston-Free,Weston Free" font-size="116.0" fill="#F5D327" transform="matrix(1.00, 0.00, -0.00, -1.00, 1088.6, 707.2)">M</text><text xml:space="preserve" font-family="Weston-Free,Weston Free" font-size="116.0" fill="#F5D327" transform="matrix(1.00, 0.00, -0.00, -1.00, 1189.6, 707.2)"> </text><text xml:space="preserve" font-family="Weston-Free,Weston Free" font-size="116.0" fill="#F5D327" transform="matrix(1.00, 0.00, -0.00, -1.00, 6.5, 568.2)">C</text><text xml:space="preserve" font-family="Weston-Free,Weston Free" font-size="116.0" fill="#F5D327" transform="matrix(1.00, 0.00, -0.00, -1.00, 88.4, 568.2)">O</text><text xml:space="preserve" font-family="Weston-Free,Weston Free" font-size="116.0" fill="#F5D327" transform="matrix(1.00, 0.00, -0.00, -1.00, 177.4, 568.2)">N</text><text xml:space="preserve" font-family="Weston-Free,Weston Free" font-size="116.0" fill="#F5D327" transform="matrix(1.00, 0.00, -0.00, -1.00, 272.1, 568.2)">S</text><text xml:space="preserve" font-family="Weston-Free,Weston Free" font-size="116.0" fill="#F5D327" transform="matrix(1.00, 0.00, -0.00, -1.00, 357.5, 568.2)">U</text><text xml:space="preserve" font-family="Weston-Free,Weston Free" font-size="116.0" fill="#F5D327" transform="matrix(1.00, 0.00, -0.00, -1.00, 453.0, 568.2)">M</text><text xml:space="preserve" font-family="Weston-Free,Weston Free" font-size="116.0" fill="#F5D327" transform="matrix(1.00, 0.00, -0.00, -1.00, 554.0, 568.2)">E</text><text xml:space="preserve" font-family="Weston-Free,Weston Free" font-size="116.0" fill="#F5D327" transform="matrix(1.00, 0.00, -0.00, -1.00, 638.7, 568.2)">R</text><text xml:space="preserve" font-family="Weston-Free,Weston Free" font-size="116.0" fill="#F5D327" transform="matrix(1.00, 0.00, -0.00, -1.00, 731.2, 568.2)"> </text><text xml:space="preserve" font-family="Weston-Free,Weston Free" font-size="116.0" fill="#F5D327" transform="matrix(1.00, 0.00, -0.00, -1.00, 772.8, 568.2)">T</text><text xml:space="preserve" font-family="Weston-Free,Weston Free" font-size="116.0" fill="#F5D327" transform="matrix(1.00, 0.00, -0.00, -1.00, 851.7, 568.2)">H</text><text xml:space="preserve" font-family="Weston-Free,Weston Free" font-size="116.0" fill="#F5D327" transform="matrix(1.00, 0.00, -0.00, -1.00, 947.3, 568.2)">A</text><text xml:space="preserve" font-family="Weston-Free,Weston Free" font-size="116.0" fill="#F5D327" transform="matrix(1.00, 0.00, -0.00, -1.00, 1033.6, 568.2)">T</text><text xml:space="preserve" font-family="Weston-Free,Weston Free" font-size="116.0" fill="#F5D327" transform="matrix(1.00, 0.00, -0.00, -1.00, 1112.4, 568.2)"> </text><text xml:space="preserve" font-family="Weston-Free,Weston Free" font-size="116.0" fill="#F5D327" transform="matrix(1.00, 0.00, -0.00, -1.00, 1154.1, 568.2)">I</text><text xml:space="preserve" font-family="Weston-Free,Weston Free" font-size="116.0" fill="#F5D327" transform="matrix(1.00, 0.00, -0.00, -1.00, 1191.0, 568.2)">S</text><text xml:space="preserve" font-family="Weston-Free,Weston Free" font-size="116.0" fill="#F5D327" transform="matrix(1.00, 0.00, -0.00, -1.00, 1281.7, 568.2)"> </text><text xml:space="preserve" font-family="Weston-Free,Weston Free" font-size="116.0" fill="#F5D327" transform="matrix(1.00, 0.00, -0.00, -1.00, 6.5, 429.2)">R</text><text xml:space="preserve" font-family="Weston-Free,Weston Free" font-size="116.0" fill="#F5D327" transform="matrix(1.00, 0.00, -0.00, -1.00, 99.0, 429.2)">E</text><text xml:space="preserve" font-family="Weston-Free,Weston Free" font-size="116.0" fill="#F5D327" transform="matrix(1.00, 0.00, -0.00, -1.00, 185.5, 429.2)">A</text><text xml:space="preserve" font-family="Weston-Free,Weston Free" font-size="116.0" fill="#F5D327" transform="matrix(1.00, 0.00, -0.00, -1.00, 276.7, 429.2)">C</text><text xml:space="preserve" font-family="Weston-Free,Weston Free" font-size="116.0" fill="#F5D327" transform="matrix(1.00, 0.00, -0.00, -1.00, 360.3, 429.2)">T</text><text xml:space="preserve" font-family="Weston-Free,Weston Free" font-size="116.0" fill="#F5D327" transform="matrix(1.00, 0.00, -0.00, -1.00, 443.7, 429.2)">I</text><text xml:space="preserve" font-family="Weston-Free,Weston Free" font-size="116.0" fill="#F5D327" transform="matrix(1.00, 0.00, -0.00, -1.00, 480.6, 429.2)">N</text><text xml:space="preserve" font-family="Weston-Free,Weston Free" font-size="116.0" fill="#F5D327" transform="matrix(1.00, 0.00, -0.00, -1.00, 573.6, 429.2)">G</text><text xml:space="preserve" font-family="Weston-Free,Weston Free" font-size="116.0" fill="#F5D327" transform="matrix(1.00, 0.00, -0.00, -1.00, 654.0, 429.2)"> </text><text xml:space="preserve" font-family="Weston-Free,Weston Free" font-size="116.0" fill="#F5D327" transform="matrix(1.00, 0.00, -0.00, -1.00, 695.7, 429.2)">T</text><text xml:space="preserve" font-family="Weston-Free,Weston Free" font-size="116.0" fill="#F5D327" transform="matrix(1.00, 0.00, -0.00, -1.00, 774.5, 429.2)">O</text><text xml:space="preserve" font-family="Weston-Free,Weston Free" font-size="116.0" fill="#F5D327" transform="matrix(1.00, 0.00, -0.00, -1.00, 866.2, 429.2)"> </text><text xml:space="preserve" font-family="Weston-Free,Weston Free" font-size="116.0" fill="#F5D327" transform="matrix(1.00, 0.00, -0.00, -1.00, 907.8, 429.2)">I</text><text xml:space="preserve" font-family="Weston-Free,Weston Free" font-size="116.0" fill="#F5D327" transform="matrix(1.00, 0.00, -0.00, -1.00, 944.7, 429.2)">N</text><text xml:space="preserve" font-family="Weston-Free,Weston Free" font-size="116.0" fill="#F5D327" transform="matrix(1.00, 0.00, -0.00, -1.00, 1046.4, 429.2)">P</text><text xml:space="preserve" font-family="Weston-Free,Weston Free" font-size="116.0" fill="#F5D327" transform="matrix(1.00, 0.00, -0.00, -1.00, 1126.1, 429.2)">U</text><text xml:space="preserve" font-family="Weston-Free,Weston Free" font-size="116.0" fill="#F5D327" transform="matrix(1.00, 0.00, -0.00, -1.00, 1226.1, 429.2)">T</text><text xml:space="preserve" font-family="Weston-Free,Weston Free" font-size="116.0" fill="#FEFFFE" transform="matrix(1.00, 0.00, -0.00, -1.00, 1294.2, 429.2)">,</text><text xml:space="preserve" font-family="Weston-Free,Weston Free" font-size="116.0" fill="#FEFFFE" transform="matrix(1.00, 0.00, -0.00, -1.00, 1321.6, 429.2)"> </text><text xml:space="preserve" font-family="Weston-Free,Weston Free" font-size="116.0" fill="#C82505" transform="matrix(1.00, 0.00, -0.00, -1.00, 1363.2, 429.2)">T</text><text xml:space="preserve" font-family="Weston-Free,Weston Free" font-size="116.0" fill="#C82505" transform="matrix(1.00, 0.00, -0.00, -1.00, 1442.1, 429.2)">H</text><text xml:space="preserve" font-family="Weston-Free,Weston Free" font-size="116.0" fill="#C82505" transform="matrix(1.00, 0.00, -0.00, -1.00, 1537.7, 429.2)">E</text><text xml:space="preserve" font-family="Weston-Free,Weston Free" font-size="116.0" fill="#C82505" transform="matrix(1.00, 0.00, -0.00, -1.00, 1622.4, 429.2)"> </text><text xml:space="preserve" font-family="Weston-Free,Weston Free" font-size="116.0" fill="#C82505" transform="matrix(1.00, 0.00, -0.00, -1.00, 6.5, 290.2)">S</text><text xml:space="preserve" font-family="Weston-Free,Weston Free" font-size="116.0" fill="#C82505" transform="matrix(1.00, 0.00, -0.00, -1.00, 95.4, 290.2)">T</text><text xml:space="preserve" font-family="Weston-Free,Weston Free" font-size="116.0" fill="#C82505" transform="matrix(1.00, 0.00, -0.00, -1.00, 174.2, 290.2)">R</text><text xml:space="preserve" font-family="Weston-Free,Weston Free" font-size="116.0" fill="#C82505" transform="matrix(1.00, 0.00, -0.00, -1.00, 266.7, 290.2)">E</text><text xml:space="preserve" font-family="Weston-Free,Weston Free" font-size="116.0" fill="#C82505" transform="matrix(1.00, 0.00, -0.00, -1.00, 353.2, 290.2)">A</text><text xml:space="preserve" font-family="Weston-Free,Weston Free" font-size="116.0" fill="#C82505" transform="matrix(1.00, 0.00, -0.00, -1.00, 446.8, 290.2)">M</text><text xml:space="preserve" font-family="Weston-Free,Weston Free" font-size="116.0" fill="#C82505" transform="matrix(1.00, 0.00, -0.00, -1.00, 547.9, 290.2)"> </text><text xml:space="preserve" font-family="Weston-Free,Weston Free" font-size="116.0" fill="#C82505" transform="matrix(1.00, 0.00, -0.00, -1.00, 589.5, 290.2)">P</text><text xml:space="preserve" font-family="Weston-Free,Weston Free" font-size="116.0" fill="#C82505" transform="matrix(1.00, 0.00, -0.00, -1.00, 672.8, 290.2)">R</text><text xml:space="preserve" font-family="Weston-Free,Weston Free" font-size="116.0" fill="#C82505" transform="matrix(1.00, 0.00, -0.00, -1.00, 761.5, 290.2)">O</text><text xml:space="preserve" font-family="Weston-Free,Weston Free" font-size="116.0" fill="#C82505" transform="matrix(1.00, 0.00, -0.00, -1.00, 849.6, 290.2)">D</text><text xml:space="preserve" font-family="Weston-Free,Weston Free" font-size="116.0" fill="#C82505" transform="matrix(1.00, 0.00, -0.00, -1.00, 933.0, 290.2)">U</text><text xml:space="preserve" font-family="Weston-Free,Weston Free" font-size="116.0" fill="#C82505" transform="matrix(1.00, 0.00, -0.00, -1.00, 1028.5, 290.2)">C</text><text xml:space="preserve" font-family="Weston-Free,Weston Free" font-size="116.0" fill="#C82505" transform="matrix(1.00, 0.00, -0.00, -1.00, 1108.5, 290.2)">E</text><text xml:space="preserve" font-family="Weston-Free,Weston Free" font-size="116.0" fill="#C82505" transform="matrix(1.00, 0.00, -0.00, -1.00, 1193.2, 290.2)">R</text><text xml:space="preserve" font-family="Weston-Free,Weston Free" font-size="116.0" fill="#C82505" transform="matrix(1.00, 0.00, -0.00, -1.00, 1285.6, 290.2)"> </text><text xml:space="preserve" font-family="Weston-Free,Weston Free" font-size="116.0" fill="#C82505" transform="matrix(1.00, 0.00, -0.00, -1.00, 1327.3, 290.2)">M</text><text xml:space="preserve" font-family="Weston-Free,Weston Free" font-size="116.0" fill="#C82505" transform="matrix(1.00, 0.00, -0.00, -1.00, 1425.5, 290.2)">U</text><text xml:space="preserve" font-family="Weston-Free,Weston Free" font-size="116.0" fill="#C82505" transform="matrix(1.00, 0.00, -0.00, -1.00, 1520.1, 290.2)">S</text><text xml:space="preserve" font-family="Weston-Free,Weston Free" font-size="116.0" fill="#C82505" transform="matrix(1.00, 0.00, -0.00, -1.00, 1608.9, 290.2)">T</text><text xml:space="preserve" font-family="Weston-Free,Weston Free" font-size="116.0" fill="#C82505" transform="matrix(1.00, 0.00, -0.00, -1.00, 1687.8, 290.2)"> </text><text xml:space="preserve" font-family="Weston-Free,Weston Free" font-size="116.0" fill="#C82505" transform="matrix(1.00, 0.00, -0.00, -1.00, 6.5, 151.2)">R</text><text xml:space="preserve" font-family="Weston-Free,Weston Free" font-size="116.0" fill="#C82505" transform="matrix(1.00, 0.00, -0.00, -1.00, 99.0, 151.2)">E</text><text xml:space="preserve" font-family="Weston-Free,Weston Free" font-size="116.0" fill="#C82505" transform="matrix(1.00, 0.00, -0.00, -1.00, 185.5, 151.2)">A</text><text xml:space="preserve" font-family="Weston-Free,Weston Free" font-size="116.0" fill="#C82505" transform="matrix(1.00, 0.00, -0.00, -1.00, 276.7, 151.2)">C</text><text xml:space="preserve" font-family="Weston-Free,Weston Free" font-size="116.0" fill="#C82505" transform="matrix(1.00, 0.00, -0.00, -1.00, 360.3, 151.2)">T</text><text xml:space="preserve" font-family="Weston-Free,Weston Free" font-size="116.0" fill="#C82505" transform="matrix(1.00, 0.00, -0.00, -1.00, 439.2, 151.2)"> </text><text xml:space="preserve" font-family="Weston-Free,Weston Free" font-size="116.0" fill="#C82505" transform="matrix(1.00, 0.00, -0.00, -1.00, 480.8, 151.2)">T</text><text xml:space="preserve" font-family="Weston-Free,Weston Free" font-size="116.0" fill="#C82505" transform="matrix(1.00, 0.00, -0.00, -1.00, 559.7, 151.2)">O</text><text xml:space="preserve" font-family="Weston-Free,Weston Free" font-size="116.0" fill="#C82505" transform="matrix(1.00, 0.00, -0.00, -1.00, 651.3, 151.2)"> </text><text xml:space="preserve" font-family="Weston-Free,Weston Free" font-size="116.0" fill="#C82505" transform="matrix(1.00, 0.00, -0.00, -1.00, 693.0, 151.2)">Y</text><text xml:space="preserve" font-family="Weston-Free,Weston Free" font-size="116.0" fill="#C82505" transform="matrix(1.00, 0.00, -0.00, -1.00, 777.0, 151.2)">O</text><text xml:space="preserve" font-family="Weston-Free,Weston Free" font-size="116.0" fill="#C82505" transform="matrix(1.00, 0.00, -0.00, -1.00, 864.9, 151.2)">U</text><text xml:space="preserve" font-family="Weston-Free,Weston Free" font-size="116.0" fill="#C82505" transform="matrix(1.00, 0.00, -0.00, -1.00, 964.9, 151.2)"> </text><text xml:space="preserve" font-family="Weston-Free,Weston Free" font-size="116.0" fill="#C82505" transform="matrix(1.00, 0.00, -0.00, -1.00, 1006.5, 151.2)">B</text><text xml:space="preserve" font-family="Weston-Free,Weston Free" font-size="116.0" fill="#C82505" transform="matrix(1.00, 0.00, -0.00, -1.00, 1093.3, 151.2)">E</text><text xml:space="preserve" font-family="Weston-Free,Weston Free" font-size="116.0" fill="#C82505" transform="matrix(1.00, 0.00, -0.00, -1.00, 1179.3, 151.2)">I</text><text xml:space="preserve" font-family="Weston-Free,Weston Free" font-size="116.0" fill="#C82505" transform="matrix(1.00, 0.00, -0.00, -1.00, 1216.2, 151.2)">N</text><text xml:space="preserve" font-family="Weston-Free,Weston Free" font-size="116.0" fill="#C82505" transform="matrix(1.00, 0.00, -0.00, -1.00, 1309.2, 151.2)">G</text><text xml:space="preserve" font-family="Weston-Free,Weston Free" font-size="116.0" fill="#C82505" transform="matrix(1.00, 0.00, -0.00, -1.00, 1389.6, 151.2)"> </text><text xml:space="preserve" font-family="Weston-Free,Weston Free" font-size="116.0" fill="#C82505" transform="matrix(1.00, 0.00, -0.00, -1.00, 1431.2, 151.2)">R</text><text xml:space="preserve" font-family="Weston-Free,Weston Free" font-size="116.0" fill="#C82505" transform="matrix(1.00, 0.00, -0.00, -1.00, 1523.7, 151.2)">E</text><text xml:space="preserve" font-family="Weston-Free,Weston Free" font-size="116.0" fill="#C82505" transform="matrix(1.00, 0.00, -0.00, -1.00, 1610.2, 151.2)">A</text><text xml:space="preserve" font-family="Weston-Free,Weston Free" font-size="116.0" fill="#C82505" transform="matrix(1.00, 0.00, -0.00, -1.00, 1703.8, 151.2)">D</text><text xml:space="preserve" font-family="Weston-Free,Weston Free" font-size="116.0" fill="#C82505" transform="matrix(1.00, 0.00, -0.00, -1.00, 1786.9, 151.2)">Y</text><text xml:space="preserve" font-family="Weston-Free,Weston Free" font-size="116.0" fill="#C82505" transform="matrix(1.00, 0.00, -0.00, -1.00, 1870.9, 151.2)"> </text><text xml:space="preserve" font-family="Weston-Free,Weston Free" font-size="116.0" fill="#C82505" transform="matrix(1.00, 0.00, -0.00, -1.00, 6.5, 10.7)">F</text><text xml:space="preserve" font-family="Weston-Free,Weston Free" font-size="116.0" fill="#C82505" transform="matrix(1.00, 0.00, -0.00, -1.00, 89.3, 10.7)">O</text><text xml:space="preserve" font-family="Weston-Free,Weston Free" font-size="116.0" fill="#C82505" transform="matrix(1.00, 0.00, -0.00, -1.00, 181.0, 10.7)">R</text><text xml:space="preserve" font-family="Weston-Free,Weston Free" font-size="116.0" fill="#C82505" transform="matrix(1.00, 0.00, -0.00, -1.00, 273.4, 10.7)"> </text><text xml:space="preserve" font-family="Weston-Free,Weston Free" font-size="116.0" fill="#C82505" transform="matrix(1.00, 0.00, -0.00, -1.00, 315.1, 10.7)">I</text><text xml:space="preserve" font-family="Weston-Free,Weston Free" font-size="116.0" fill="#C82505" transform="matrix(1.00, 0.00, -0.00, -1.00, 352.0, 10.7)">N</text><text xml:space="preserve" font-family="Weston-Free,Weston Free" font-size="116.0" fill="#C82505" transform="matrix(1.00, 0.00, -0.00, -1.00, 453.7, 10.7)">P</text><text xml:space="preserve" font-family="Weston-Free,Weston Free" font-size="116.0" fill="#C82505" transform="matrix(1.00, 0.00, -0.00, -1.00, 533.4, 10.7)">U</text><text xml:space="preserve" font-family="Weston-Free,Weston Free" font-size="116.0" fill="#C82505" transform="matrix(1.00, 0.00, -0.00, -1.00, 633.4, 10.7)">T</text><text xml:space="preserve" font-family="Weston-Free,Weston Free" font-size="116.0" fill="#C82505" transform="matrix(1.00, 0.00, -0.00, -1.00, 696.0, 10.7)">.</text><text xml:space="preserve" font-family="LucidaGrande,Lucida Grande" font-size="116.0" fill="#FEFFFE" transform="matrix(1.00, 0.00, -0.00, -1.00, 722.7, 10.7)">“</text><image xlink:href="B84B163299FEB9F665CF513870EAA91C.png" width="367.00" height="57.00" transform="matrix(1.00, 0.00, -0.00, -1.00, 1463.0, 104.0)"></image><text xml:space="preserve" font-family="AndaleMono,Andale Mono" font-size="56.0" fill="#51A7F9" transform="matrix(1.00, 0.00, -0.00, -1.00, 1462.0, 62.7)">J</text><text xml:space="preserve" font-family="AndaleMono,Andale Mono" font-size="56.0" fill="#51A7F9" transform="matrix(1.00, 0.00, -0.00, -1.00, 1495.6, 62.7)">a</text><text xml:space="preserve" font-family="AndaleMono,Andale Mono" font-size="56.0" fill="#51A7F9" transform="matrix(1.00, 0.00, -0.00, -1.00, 1529.2, 62.7)">m</text><text xml:space="preserve" font-family="AndaleMono,Andale Mono" font-size="56.0" fill="#51A7F9" transform="matrix(1.00, 0.00, -0.00, -1.00, 1562.8, 62.7)">e</text><text xml:space="preserve" font-family="AndaleMono,Andale Mono" font-size="56.0" fill="#51A7F9" transform="matrix(1.00, 0.00, -0.00, -1.00, 1596.4, 62.7)">s</text><text xml:space="preserve" font-family="AndaleMono,Andale Mono" font-size="56.0" fill="#51A7F9" transform="matrix(1.00, 0.00, -0.00, -1.00, 1630.1, 62.7)"> </text><text xml:space="preserve" font-family="AndaleMono,Andale Mono" font-size="56.0" fill="#51A7F9" transform="matrix(1.00, 0.00, -0.00, -1.00, 1663.7, 62.7)">R</text><text xml:space="preserve" font-family="AndaleMono,Andale Mono" font-size="56.0" fill="#51A7F9" transform="matrix(1.00, 0.00, -0.00, -1.00, 1697.3, 62.7)">o</text><text xml:space="preserve" font-family="AndaleMono,Andale Mono" font-size="56.0" fill="#51A7F9" transform="matrix(1.00, 0.00, -0.00, -1.00, 1730.9, 62.7)">p</text><text xml:space="preserve" font-family="AndaleMono,Andale Mono" font-size="56.0" fill="#51A7F9" transform="matrix(1.00, 0.00, -0.00, -1.00, 1764.5, 62.7)">e</text><text xml:space="preserve" font-family="AndaleMono,Andale Mono" font-size="56.0" fill="#51A7F9" transform="matrix(1.00, 0.00, -0.00, -1.00, 1798.1, 62.7)">r</text></g></svg>