<?xml version="1.0" encoding="UTF-8" standalone="no"?><svg xmlns="http://www.w3.org/2000/svg" xmlns:xlink="http://www.w3.org/1999/xlink" clip-rule="evenodd" stroke-miterlimit="10" viewBox="0 0 1920 1080"><desc>SVG generated by Keynote</desc><defs></defs><g transform="matrix(1.00, 0.00, -0.00, -1.00, 0.0, 1080.0)"><path d="M 0.0 1080.0 L 1920.0 1080.0 L 1920.0 0.0 L 0.0 0.0 Z M 0.0 1080.0 " fill="#FEFFFF"></path><g><clipPath id="clip0x6080006b6d40"><path d="M 0.0 1080.0 L 1920.0 1080.0 L 1920.0 0.0 L 0.0 0.0 Z M 0.0 1080.0 "></path></clipPath><g clip-path="url(#clip0x6080006b6d40)"><image xlink:href="94F98822B5E8A56339A6230C305EA015.png" width="986.00" height="990.00" transform="matrix(1.95, 0.00, -0.00, -1.95, 0.0, 1503.9)"></image></g></g><path d="M 60.6 10.4 C 74.5 24.3 74.5 46.7 60.6 60.6 C 46.7 74.5 24.3 74.5 10.4 60.6 C -3.5 46.7 -3.5 24.3 10.4 10.4 C 24.3 -3.5 46.7 -3.5 60.6 10.4 " fill="none" stroke="#FFFFFF" stroke-width="2.00" transform="matrix(1.00, 0.00, 0.00, -1.00, 924.5, 117.5)"></path><text xml:space="preserve" font-family="Lato-Regular,Lato" font-size="24.0" fill="#FEFFFE" transform="matrix(1.00, 0.00, -0.00, -1.00, 952.0, 74.1)">3</text><g><clipPath id="clip0x6080006b1a00"><path d="M -512.0 1092.0 L 1964.0 1092.0 L 1964.0 -300.0 L -512.0 -300.0 Z M -512.0 1092.5 "></path></clipPath><g clip-path="url(#clip0x6080006b1a00)"><image xlink:href="C7294F3857A454E72132B23F2606FF4B.jpeg" width="4096.00" height="2304.00" transform="matrix(0.60, 0.00, -0.00, -0.60, -512.0, 1092.5)"></image></g></g><text xml:space="preserve" font-family="Weston-Free,Weston Free" font-size="116.0" fill="#51A7F9" transform="matrix(1.00, 0.00, -0.00, -1.00, 625.6, 259.5)">D</text><text xml:space="preserve" font-family="Weston-Free,Weston Free" font-size="116.0" fill="#51A7F9" transform="matrix(1.00, 0.00, -0.00, -1.00, 710.8, 259.5)">A</text><text xml:space="preserve" font-family="Weston-Free,Weston Free" font-size="116.0" fill="#51A7F9" transform="matrix(1.00, 0.00, -0.00, -1.00, 797.1, 259.5)">T</text><text xml:space="preserve" font-family="Weston-Free,Weston Free" font-size="116.0" fill="#51A7F9" transform="matrix(1.00, 0.00, -0.00, -1.00, 867.0, 259.5)">A</text><text xml:space="preserve" font-family="Weston-Free,Weston Free" font-size="116.0" fill="#51A7F9" transform="matrix(1.00, 0.00, -0.00, -1.00, 960.6, 259.5)"> </text><text xml:space="preserve" font-family="Weston-Free,Weston Free" font-size="116.0" fill="#51A7F9" transform="matrix(1.00, 0.00, -0.00, -1.00, 1002.2, 259.5)">P</text><text xml:space="preserve" font-family="Weston-Free,Weston Free" font-size="116.0" fill="#51A7F9" transform="matrix(1.00, 0.00, -0.00, -1.00, 1085.5, 259.5)">R</text><text xml:space="preserve" font-family="Weston-Free,Weston Free" font-size="116.0" fill="#51A7F9" transform="matrix(1.00, 0.00, -0.00, -1.00, 1174.3, 259.5)">O</text><text xml:space="preserve" font-family="Weston-Free,Weston Free" font-size="116.0" fill="#51A7F9" transform="matrix(1.00, 0.00, -0.00, -1.00, 1269.5, 259.5)">C</text><text xml:space="preserve" font-family="Weston-Free,Weston Free" font-size="116.0" fill="#51A7F9" transform="matrix(1.00, 0.00, -0.00, -1.00, 1349.5, 259.5)">E</text><text xml:space="preserve" font-family="Weston-Free,Weston Free" font-size="116.0" fill="#51A7F9" transform="matrix(1.00, 0.00, -0.00, -1.00, 1434.2, 259.5)">S</text><text xml:space="preserve" font-family="Weston-Free,Weston Free" font-size="116.0" fill="#51A7F9" transform="matrix(1.00, 0.00, -0.00, -1.00, 1524.9, 259.5)">S</text><text xml:space="preserve" font-family="Weston-Free,Weston Free" font-size="116.0" fill="#51A7F9" transform="matrix(1.00, 0.00, -0.00, -1.00, 1615.6, 259.5)">I</text><text xml:space="preserve" font-family="Weston-Free,Weston Free" font-size="116.0" fill="#51A7F9" transform="matrix(1.00, 0.00, -0.00, -1.00, 1652.5, 259.5)">N</text><text xml:space="preserve" font-family="Weston-Free,Weston Free" font-size="116.0" fill="#51A7F9" transform="matrix(1.00, 0.00, -0.00, -1.00, 1745.6, 259.5)">G</text><text xml:space="preserve" font-family="Weston-Free,Weston Free" font-size="116.0" fill="#B26AE1" transform="matrix(1.00, 0.00, -0.00, -1.00, 1222.3, 143.0)">P</text><text xml:space="preserve" font-family="Weston-Free,Weston Free" font-size="116.0" fill="#B26AE1" transform="matrix(1.00, 0.00, -0.00, -1.00, 1305.6, 143.0)">I</text><text xml:space="preserve" font-family="Weston-Free,Weston Free" font-size="116.0" fill="#B26AE1" transform="matrix(1.00, 0.00, -0.00, -1.00, 1342.5, 143.0)">P</text><text xml:space="preserve" font-family="Weston-Free,Weston Free" font-size="116.0" fill="#B26AE1" transform="matrix(1.00, 0.00, -0.00, -1.00, 1425.8, 143.0)">E</text><text xml:space="preserve" font-family="Weston-Free,Weston Free" font-size="116.0" fill="#B26AE1" transform="matrix(1.00, 0.00, -0.00, -1.00, 1510.4, 143.0)">L</text><text xml:space="preserve" font-family="Weston-Free,Weston Free" font-size="116.0" fill="#B26AE1" transform="matrix(1.00, 0.00, -0.00, -1.00, 1596.8, 143.0)">I</text><text xml:space="preserve" font-family="Weston-Free,Weston Free" font-size="116.0" fill="#B26AE1" transform="matrix(1.00, 0.00, -0.00, -1.00, 1633.7, 143.0)">N</text><text xml:space="preserve" font-family="Weston-Free,Weston Free" font-size="116.0" fill="#B26AE1" transform="matrix(1.00, 0.00, -0.00, -1.00, 1733.0, 143.0)">E</text><text xml:space="preserve" font-family="AndaleMono,Andale Mono" font-size="56.0" fill="#FEFFFE" transform="matrix(1.00, 0.00, -0.00, -1.00, 393.2, 62.7)">H</text><text xml:space="preserve" font-family="AndaleMono,Andale Mono" font-size="56.0" fill="#FEFFFE" transform="matrix(1.00, 0.00, -0.00, -1.00, 426.8, 62.7)">A</text><text xml:space="preserve" font-family="AndaleMono,Andale Mono" font-size="56.0" fill="#FEFFFE" transform="matrix(1.00, 0.00, -0.00, -1.00, 460.4, 62.7)">R</text><text xml:space="preserve" font-family="AndaleMono,Andale Mono" font-size="56.0" fill="#FEFFFE" transform="matrix(1.00, 0.00, -0.00, -1.00, 494.0, 62.7)">P</text><text xml:space="preserve" font-family="AndaleMono,Andale Mono" font-size="56.0" fill="#FEFFFE" transform="matrix(1.00, 0.00, -0.00, -1.00, 527.6, 62.7)">E</text><text xml:space="preserve" font-family="AndaleMono,Andale Mono" font-size="56.0" fill="#FEFFFE" transform="matrix(1.00, 0.00, -0.00, -1.00, 561.2, 62.7)">R</text><text xml:space="preserve" font-family="AndaleMono,Andale Mono" font-size="56.0" fill="#FEFFFE" transform="matrix(1.00, 0.00, -0.00, -1.00, 594.8, 62.7)"> </text><text xml:space="preserve" font-family="AndaleMono,Andale Mono" font-size="56.0" fill="#FEFFFE" transform="matrix(1.00, 0.00, -0.00, -1.00, 628.4, 62.7)">&amp;</text><text xml:space="preserve" font-family="AndaleMono,Andale Mono" font-size="56.0" fill="#FEFFFE" transform="matrix(1.00, 0.00, -0.00, -1.00, 662.1, 62.7)"> </text><text xml:space="preserve" font-family="AndaleMono,Andale Mono" font-size="56.0" fill="#FEFFFE" transform="matrix(1.00, 0.00, -0.00, -1.00, 695.7, 62.7)">C</text><text xml:space="preserve" font-family="AndaleMono,Andale Mono" font-size="56.0" fill="#FEFFFE" transform="matrix(1.00, 0.00, -0.00, -1.00, 729.3, 62.7)">H</text><text xml:space="preserve" font-family="AndaleMono,Andale Mono" font-size="56.0" fill="#FEFFFE" transform="matrix(1.00, 0.00, -0.00, -1.00, 762.9, 62.7)">R</text><text xml:space="preserve" font-family="AndaleMono,Andale Mono" font-size="56.0" fill="#FEFFFE" transform="matrix(1.00, 0.00, -0.00, -1.00, 796.5, 62.7)">I</text><text xml:space="preserve" font-family="AndaleMono,Andale Mono" font-size="56.0" fill="#FEFFFE" transform="matrix(1.00, 0.00, -0.00, -1.00, 830.1, 62.7)">S</text><text xml:space="preserve" font-family="AndaleMono,Andale Mono" font-size="56.0" fill="#FEFFFE" transform="matrix(1.00, 0.00, -0.00, -1.00, 863.7, 62.7)">T</text><text xml:space="preserve" font-family="AndaleMono,Andale Mono" font-size="56.0" fill="#FEFFFE" transform="matrix(1.00, 0.00, -0.00, -1.00, 897.3, 62.7)">Y</text><text xml:space="preserve" font-family="AndaleMono,Andale Mono" font-size="56.0" fill="#FEFFFE" transform="matrix(1.00, 0.00, -0.00, -1.00, 930.9, 62.7)"> </text><text xml:space="preserve" font-family="AndaleMono,Andale Mono" font-size="56.0" fill="#FEFFFE" transform="matrix(1.00, 0.00, -0.00, -1.00, 964.6, 62.7)">D</text><text xml:space="preserve" font-family="AndaleMono,Andale Mono" font-size="56.0" fill="#FEFFFE" transform="matrix(1.00, 0.00, -0.00, -1.00, 998.2, 62.7)">O</text><text xml:space="preserve" font-family="AndaleMono,Andale Mono" font-size="56.0" fill="#FEFFFE" transform="matrix(1.00, 0.00, -0.00, -1.00, 1031.8, 62.7)">I</text><text xml:space="preserve" font-family="AndaleMono,Andale Mono" font-size="56.0" fill="#FEFFFE" transform="matrix(1.00, 0.00, -0.00, -1.00, 1065.4, 62.7)">N</text><text xml:space="preserve" font-family="AndaleMono,Andale Mono" font-size="56.0" fill="#FEFFFE" transform="matrix(1.00, 0.00, -0.00, -1.00, 1099.0, 62.7)">G</text><text xml:space="preserve" font-family="AndaleMono,Andale Mono" font-size="56.0" fill="#FEFFFE" transform="matrix(1.00, 0.00, -0.00, -1.00, 1132.6, 62.7)"> </text><text xml:space="preserve" font-family="AndaleMono,Andale Mono" font-size="56.0" fill="#FEFFFE" transform="matrix(1.00, 0.00, -0.00, -1.00, 1166.2, 62.7)">I</text><text xml:space="preserve" font-family="AndaleMono,Andale Mono" font-size="56.0" fill="#FEFFFE" transform="matrix(1.00, 0.00, -0.00, -1.00, 1199.8, 62.7)">T</text><text xml:space="preserve" font-family="AndaleMono,Andale Mono" font-size="56.0" fill="#FEFFFE" transform="matrix(1.00, 0.00, -0.00, -1.00, 1233.4, 62.7)"> </text><text xml:space="preserve" font-family="AndaleMono,Andale Mono" font-size="56.0" fill="#FEFFFE" transform="matrix(1.00, 0.00, -0.00, -1.00, 1267.1, 62.7)">P</text><text xml:space="preserve" font-family="AndaleMono,Andale Mono" font-size="56.0" fill="#FEFFFE" transform="matrix(1.00, 0.00, -0.00, -1.00, 1300.7, 62.7)">U</text><text xml:space="preserve" font-family="AndaleMono,Andale Mono" font-size="56.0" fill="#FEFFFE" transform="matrix(1.00, 0.00, -0.00, -1.00, 1334.3, 62.7)">R</text><text xml:space="preserve" font-family="AndaleMono,Andale Mono" font-size="56.0" fill="#FEFFFE" transform="matrix(1.00, 0.00, -0.00, -1.00, 1367.9, 62.7)">E</text><text xml:space="preserve" font-family="AndaleMono,Andale Mono" font-size="56.0" fill="#FEFFFE" transform="matrix(1.00, 0.00, -0.00, -1.00, 1401.5, 62.7)">L</text><text xml:space="preserve" font-family="AndaleMono,Andale Mono" font-size="56.0" fill="#FEFFFE" transform="matrix(1.00, 0.00, -0.00, -1.00, 1435.1, 62.7)">Y</text><text xml:space="preserve" font-family="AndaleMono,Andale Mono" font-size="56.0" fill="#FEFFFE" transform="matrix(1.00, 0.00, -0.00, -1.00, 1468.7, 62.7)"> </text><text xml:space="preserve" font-family="AndaleMono,Andale Mono" font-size="56.0" fill="#FEFFFE" transform="matrix(1.00, 0.00, -0.00, -1.00, 1502.3, 62.7)">F</text><text xml:space="preserve" font-family="AndaleMono,Andale Mono" font-size="56.0" fill="#FEFFFE" transform="matrix(1.00, 0.00, -0.00, -1.00, 1535.9, 62.7)">U</text><text xml:space="preserve" font-family="AndaleMono,Andale Mono" font-size="56.0" fill="#FEFFFE" transform="matrix(1.00, 0.00, -0.00, -1.00, 1569.6, 62.7)">N</text><text xml:space="preserve" font-family="AndaleMono,Andale Mono" font-size="56.0" fill="#FEFFFE" transform="matrix(1.00, 0.00, -0.00, -1.00, 1603.2, 62.7)">C</text><text xml:space="preserve" font-family="AndaleMono,Andale Mono" font-size="56.0" fill="#FEFFFE" transform="matrix(1.00, 0.00, -0.00, -1.00, 1636.8, 62.7)">T</text><text xml:space="preserve" font-family="AndaleMono,Andale Mono" font-size="56.0" fill="#FEFFFE" transform="matrix(1.00, 0.00, -0.00, -1.00, 1670.4, 62.7)">I</text><text xml:space="preserve" font-family="AndaleMono,Andale Mono" font-size="56.0" fill="#FEFFFE" transform="matrix(1.00, 0.00, -0.00, -1.00, 1704.0, 62.7)">O</text><text xml:space="preserve" font-family="AndaleMono,Andale Mono" font-size="56.0" fill="#FEFFFE" transform="matrix(1.00, 0.00, -0.00, -1.00, 1737.6, 62.7)">N</text><text xml:space="preserve" font-family="AndaleMono,Andale Mono" font-size="56.0" fill="#FEFFFE" transform="matrix(1.00, 0.00, -0.00, -1.00, 1771.2, 62.7)">A</text><text xml:space="preserve" font-family="AndaleMono,Andale Mono" font-size="56.0" fill="#FEFFFE" transform="matrix(1.00, 0.00, -0.00, -1.00, 1804.8, 62.7)">L</text></g></svg>