<?xml version="1.0" encoding="UTF-8" standalone="no"?><svg xmlns="http://www.w3.org/2000/svg" xmlns:xlink="http://www.w3.org/1999/xlink" clip-rule="evenodd" stroke-miterlimit="10" viewBox="0 0 1920 1080"><desc>SVG generated by Keynote</desc><defs></defs><g transform="matrix(1.00, 0.00, -0.00, -1.00, 0.0, 1080.0)"><path d="M 0.0 1080.0 L 1920.0 1080.0 L 1920.0 0.0 L 0.0 0.0 Z M 0.0 1080.0 " fill="#FEFFFF"></path><g><clipPath id="clip0x6180006adb00"><path d="M 0.0 1080.0 L 1920.0 1080.0 L 1920.0 0.0 L 0.0 0.0 Z M 0.0 1080.0 "></path></clipPath><g clip-path="url(#clip0x6180006adb00)"><image xlink:href="../../55BFAB8F-39D9-4B62-A21A-CEBB09102910/assets/94F98822B5E8A56339A6230C305EA015.png" width="986.00" height="990.00" transform="matrix(1.95, 0.00, -0.00, -1.95, 0.0, 1503.9)"></image></g></g><text xml:space="preserve" font-family="Weston-Free,Weston Free" font-size="116.0" fill="#F38F18" transform="matrix(1.00, 0.00, -0.00, -1.00, 114.4, 880.3)">E</text><text xml:space="preserve" font-family="Weston-Free,Weston Free" font-size="116.0" fill="#F38F18" transform="matrix(1.00, 0.00, -0.00, -1.00, 199.1, 880.3)">N</text><text xml:space="preserve" font-family="Weston-Free,Weston Free" font-size="116.0" fill="#F38F18" transform="matrix(1.00, 0.00, -0.00, -1.00, 296.5, 880.3)">U</text><text xml:space="preserve" font-family="Weston-Free,Weston Free" font-size="116.0" fill="#F38F18" transform="matrix(1.00, 0.00, -0.00, -1.00, 392.0, 880.3)">M</text><text xml:space="preserve" font-family="Weston-Free,Weston Free" font-size="116.0" fill="#F38F18" transform="matrix(1.00, 0.00, -0.00, -1.00, 493.0, 880.3)">E</text><text xml:space="preserve" font-family="Weston-Free,Weston Free" font-size="116.0" fill="#F38F18" transform="matrix(1.00, 0.00, -0.00, -1.00, 577.7, 880.3)">R</text><text xml:space="preserve" font-family="Weston-Free,Weston Free" font-size="116.0" fill="#F38F18" transform="matrix(1.00, 0.00, -0.00, -1.00, 672.9, 880.3)">A</text><text xml:space="preserve" font-family="Weston-Free,Weston Free" font-size="116.0" fill="#F38F18" transform="matrix(1.00, 0.00, -0.00, -1.00, 759.2, 880.3)">T</text><text xml:space="preserve" font-family="Weston-Free,Weston Free" font-size="116.0" fill="#F38F18" transform="matrix(1.00, 0.00, -0.00, -1.00, 838.1, 880.3)">O</text><text xml:space="preserve" font-family="Weston-Free,Weston Free" font-size="116.0" fill="#F38F18" transform="matrix(1.00, 0.00, -0.00, -1.00, 929.7, 880.3)">R</text><text xml:space="preserve" font-family="Weston-Free,Weston Free" font-size="116.0" fill="#F38F18" transform="matrix(1.00, 0.00, -0.00, -1.00, 1022.2, 880.3)"> </text><text xml:space="preserve" font-family="Weston-Free,Weston Free" font-size="116.0" fill="#F38F18" transform="matrix(1.00, 0.00, -0.00, -1.00, 1063.8, 880.3)">A</text><text xml:space="preserve" font-family="Weston-Free,Weston Free" font-size="116.0" fill="#F38F18" transform="matrix(1.00, 0.00, -0.00, -1.00, 1157.4, 880.3)">P</text><text xml:space="preserve" font-family="Weston-Free,Weston Free" font-size="116.0" fill="#F38F18" transform="matrix(1.00, 0.00, -0.00, -1.00, 1240.7, 880.3)">I</text><text xml:space="preserve" font-family="AndaleMono,Andale Mono" font-size="56.0" fill="#FEFFFE" transform="matrix(1.00, 0.00, -0.00, -1.00, 113.9, 768.2)">T</text><text xml:space="preserve" font-family="AndaleMono,Andale Mono" font-size="56.0" fill="#FEFFFE" transform="matrix(1.00, 0.00, -0.00, -1.00, 147.5, 768.2)">H</text><text xml:space="preserve" font-family="AndaleMono,Andale Mono" font-size="56.0" fill="#FEFFFE" transform="matrix(1.00, 0.00, -0.00, -1.00, 181.1, 768.2)">I</text><text xml:space="preserve" font-family="AndaleMono,Andale Mono" font-size="56.0" fill="#FEFFFE" transform="matrix(1.00, 0.00, -0.00, -1.00, 214.7, 768.2)">N</text><text xml:space="preserve" font-family="AndaleMono,Andale Mono" font-size="56.0" fill="#FEFFFE" transform="matrix(1.00, 0.00, -0.00, -1.00, 248.3, 768.2)">K</text><text xml:space="preserve" font-family="AndaleMono,Andale Mono" font-size="56.0" fill="#FEFFFE" transform="matrix(1.00, 0.00, -0.00, -1.00, 281.9, 768.2)"> </text><text xml:space="preserve" font-family="AndaleMono,Andale Mono" font-size="56.0" fill="#FEFFFE" transform="matrix(1.00, 0.00, -0.00, -1.00, 315.5, 768.2)">O</text><text xml:space="preserve" font-family="AndaleMono,Andale Mono" font-size="56.0" fill="#FEFFFE" transform="matrix(1.00, 0.00, -0.00, -1.00, 349.2, 768.2)">F</text><text xml:space="preserve" font-family="AndaleMono,Andale Mono" font-size="56.0" fill="#FEFFFE" transform="matrix(1.00, 0.00, -0.00, -1.00, 382.8, 768.2)"> </text><text xml:space="preserve" font-family="AndaleMono,Andale Mono" font-size="56.0" fill="#FEFFFE" transform="matrix(1.00, 0.00, -0.00, -1.00, 416.4, 768.2)">A</text><text xml:space="preserve" font-family="AndaleMono,Andale Mono" font-size="56.0" fill="#FEFFFE" transform="matrix(1.00, 0.00, -0.00, -1.00, 450.0, 768.2)">N</text><text xml:space="preserve" font-family="AndaleMono,Andale Mono" font-size="56.0" fill="#FEFFFE" transform="matrix(1.00, 0.00, -0.00, -1.00, 483.6, 768.2)"> </text><text xml:space="preserve" font-family="AndaleMono,Andale Mono" font-size="56.0" fill="#FEFFFE" transform="matrix(1.00, 0.00, -0.00, -1.00, 517.2, 768.2)">E</text><text xml:space="preserve" font-family="AndaleMono,Andale Mono" font-size="56.0" fill="#FEFFFE" transform="matrix(1.00, 0.00, -0.00, -1.00, 550.8, 768.2)">N</text><text xml:space="preserve" font-family="AndaleMono,Andale Mono" font-size="56.0" fill="#FEFFFE" transform="matrix(1.00, 0.00, -0.00, -1.00, 584.4, 768.2)">U</text><text xml:space="preserve" font-family="AndaleMono,Andale Mono" font-size="56.0" fill="#FEFFFE" transform="matrix(1.00, 0.00, -0.00, -1.00, 618.0, 768.2)">M</text><text xml:space="preserve" font-family="AndaleMono,Andale Mono" font-size="56.0" fill="#FEFFFE" transform="matrix(1.00, 0.00, -0.00, -1.00, 651.7, 768.2)">E</text><text xml:space="preserve" font-family="AndaleMono,Andale Mono" font-size="56.0" fill="#FEFFFE" transform="matrix(1.00, 0.00, -0.00, -1.00, 685.3, 768.2)">R</text><text xml:space="preserve" font-family="AndaleMono,Andale Mono" font-size="56.0" fill="#FEFFFE" transform="matrix(1.00, 0.00, -0.00, -1.00, 718.9, 768.2)">A</text><text xml:space="preserve" font-family="AndaleMono,Andale Mono" font-size="56.0" fill="#FEFFFE" transform="matrix(1.00, 0.00, -0.00, -1.00, 752.5, 768.2)">T</text><text xml:space="preserve" font-family="AndaleMono,Andale Mono" font-size="56.0" fill="#FEFFFE" transform="matrix(1.00, 0.00, -0.00, -1.00, 786.1, 768.2)">O</text><text xml:space="preserve" font-family="AndaleMono,Andale Mono" font-size="56.0" fill="#FEFFFE" transform="matrix(1.00, 0.00, -0.00, -1.00, 819.7, 768.2)">R</text><text xml:space="preserve" font-family="AndaleMono,Andale Mono" font-size="56.0" fill="#FEFFFE" transform="matrix(1.00, 0.00, -0.00, -1.00, 853.3, 768.2)"> </text><text xml:space="preserve" font-family="AndaleMono,Andale Mono" font-size="56.0" fill="#FEFFFE" transform="matrix(1.00, 0.00, -0.00, -1.00, 886.9, 768.2)">A</text><text xml:space="preserve" font-family="AndaleMono,Andale Mono" font-size="56.0" fill="#FEFFFE" transform="matrix(1.00, 0.00, -0.00, -1.00, 920.5, 768.2)">S</text><text xml:space="preserve" font-family="AndaleMono,Andale Mono" font-size="56.0" fill="#FEFFFE" transform="matrix(1.00, 0.00, -0.00, -1.00, 954.2, 768.2)"> </text><text xml:space="preserve" font-family="AndaleMono,Andale Mono" font-size="56.0" fill="#FEFFFE" transform="matrix(1.00, 0.00, -0.00, -1.00, 987.8, 768.2)">A</text><text xml:space="preserve" font-family="AndaleMono,Andale Mono" font-size="56.0" fill="#FEFFFE" transform="matrix(1.00, 0.00, -0.00, -1.00, 1021.4, 768.2)"> </text><text xml:space="preserve" font-family="AndaleMono,Andale Mono" font-size="56.0" fill="#FEFFFE" transform="matrix(1.00, 0.00, -0.00, -1.00, 1055.0, 768.2)">K</text><text xml:space="preserve" font-family="AndaleMono,Andale Mono" font-size="56.0" fill="#FEFFFE" transform="matrix(1.00, 0.00, -0.00, -1.00, 1088.6, 768.2)">I</text><text xml:space="preserve" font-family="AndaleMono,Andale Mono" font-size="56.0" fill="#FEFFFE" transform="matrix(1.00, 0.00, -0.00, -1.00, 1122.2, 768.2)">N</text><text xml:space="preserve" font-family="AndaleMono,Andale Mono" font-size="56.0" fill="#FEFFFE" transform="matrix(1.00, 0.00, -0.00, -1.00, 1155.8, 768.2)">D</text><text xml:space="preserve" font-family="AndaleMono,Andale Mono" font-size="56.0" fill="#FEFFFE" transform="matrix(1.00, 0.00, -0.00, -1.00, 1189.4, 768.2)"> </text><text xml:space="preserve" font-family="AndaleMono,Andale Mono" font-size="56.0" fill="#FEFFFE" transform="matrix(1.00, 0.00, -0.00, -1.00, 1223.0, 768.2)">O</text><text xml:space="preserve" font-family="AndaleMono,Andale Mono" font-size="56.0" fill="#FEFFFE" transform="matrix(1.00, 0.00, -0.00, -1.00, 1256.7, 768.2)">F</text><text xml:space="preserve" font-family="AndaleMono,Andale Mono" font-size="56.0" fill="#FEFFFE" transform="matrix(1.00, 0.00, -0.00, -1.00, 1290.3, 768.2)"> </text><text xml:space="preserve" font-family="AndaleMono,Andale Mono" font-size="56.0" fill="#FEFFFE" transform="matrix(1.00, 0.00, -0.00, -1.00, 1323.9, 768.2)"> </text><text xml:space="preserve" font-family="AndaleMono,Andale Mono" font-size="56.0" fill="#FEFFFE" transform="matrix(1.00, 0.00, -0.00, -1.00, 113.9, 705.2)">T</text><text xml:space="preserve" font-family="AndaleMono,Andale Mono" font-size="56.0" fill="#FEFFFE" transform="matrix(1.00, 0.00, -0.00, -1.00, 147.5, 705.2)">R</text><text xml:space="preserve" font-family="AndaleMono,Andale Mono" font-size="56.0" fill="#FEFFFE" transform="matrix(1.00, 0.00, -0.00, -1.00, 181.1, 705.2)">A</text><text xml:space="preserve" font-family="AndaleMono,Andale Mono" font-size="56.0" fill="#FEFFFE" transform="matrix(1.00, 0.00, -0.00, -1.00, 214.7, 705.2)">N</text><text xml:space="preserve" font-family="AndaleMono,Andale Mono" font-size="56.0" fill="#FEFFFE" transform="matrix(1.00, 0.00, -0.00, -1.00, 248.3, 705.2)">S</text><text xml:space="preserve" font-family="AndaleMono,Andale Mono" font-size="56.0" fill="#FEFFFE" transform="matrix(1.00, 0.00, -0.00, -1.00, 281.9, 705.2)">F</text><text xml:space="preserve" font-family="AndaleMono,Andale Mono" font-size="56.0" fill="#FEFFFE" transform="matrix(1.00, 0.00, -0.00, -1.00, 315.5, 705.2)">O</text><text xml:space="preserve" font-family="AndaleMono,Andale Mono" font-size="56.0" fill="#FEFFFE" transform="matrix(1.00, 0.00, -0.00, -1.00, 349.2, 705.2)">R</text><text xml:space="preserve" font-family="AndaleMono,Andale Mono" font-size="56.0" fill="#FEFFFE" transform="matrix(1.00, 0.00, -0.00, -1.00, 382.8, 705.2)">M</text><text xml:space="preserve" font-family="AndaleMono,Andale Mono" font-size="56.0" fill="#FEFFFE" transform="matrix(1.00, 0.00, -0.00, -1.00, 416.4, 705.2)">E</text><text xml:space="preserve" font-family="AndaleMono,Andale Mono" font-size="56.0" fill="#FEFFFE" transform="matrix(1.00, 0.00, -0.00, -1.00, 450.0, 705.2)">R</text><text xml:space="preserve" font-family="AndaleMono,Andale Mono" font-size="56.0" fill="#FEFFFE" transform="matrix(1.00, 0.00, -0.00, -1.00, 483.6, 705.2)">,</text><text xml:space="preserve" font-family="AndaleMono,Andale Mono" font-size="56.0" fill="#FEFFFE" transform="matrix(1.00, 0.00, -0.00, -1.00, 517.2, 705.2)"> </text><text xml:space="preserve" font-family="AndaleMono,Andale Mono" font-size="56.0" fill="#FEFFFE" transform="matrix(1.00, 0.00, -0.00, -1.00, 550.8, 705.2)">A</text><text xml:space="preserve" font-family="AndaleMono,Andale Mono" font-size="56.0" fill="#FEFFFE" transform="matrix(1.00, 0.00, -0.00, -1.00, 584.4, 705.2)">D</text><text xml:space="preserve" font-family="AndaleMono,Andale Mono" font-size="56.0" fill="#FEFFFE" transform="matrix(1.00, 0.00, -0.00, -1.00, 618.0, 705.2)">A</text><text xml:space="preserve" font-family="AndaleMono,Andale Mono" font-size="56.0" fill="#FEFFFE" transform="matrix(1.00, 0.00, -0.00, -1.00, 651.7, 705.2)">P</text><text xml:space="preserve" font-family="AndaleMono,Andale Mono" font-size="56.0" fill="#FEFFFE" transform="matrix(1.00, 0.00, -0.00, -1.00, 685.3, 705.2)">T</text><text xml:space="preserve" font-family="AndaleMono,Andale Mono" font-size="56.0" fill="#FEFFFE" transform="matrix(1.00, 0.00, -0.00, -1.00, 718.9, 705.2)">E</text><text xml:space="preserve" font-family="AndaleMono,Andale Mono" font-size="56.0" fill="#FEFFFE" transform="matrix(1.00, 0.00, -0.00, -1.00, 752.5, 705.2)">R</text><text xml:space="preserve" font-family="AndaleMono,Andale Mono" font-size="56.0" fill="#FEFFFE" transform="matrix(1.00, 0.00, -0.00, -1.00, 786.1, 705.2)"> </text><text xml:space="preserve" font-family="AndaleMono,Andale Mono" font-size="56.0" fill="#FEFFFE" transform="matrix(1.00, 0.00, -0.00, -1.00, 819.7, 705.2)">A</text><text xml:space="preserve" font-family="AndaleMono,Andale Mono" font-size="56.0" fill="#FEFFFE" transform="matrix(1.00, 0.00, -0.00, -1.00, 853.3, 705.2)">N</text><text xml:space="preserve" font-family="AndaleMono,Andale Mono" font-size="56.0" fill="#FEFFFE" transform="matrix(1.00, 0.00, -0.00, -1.00, 886.9, 705.2)">D</text><text xml:space="preserve" font-family="AndaleMono,Andale Mono" font-size="56.0" fill="#FEFFFE" transform="matrix(1.00, 0.00, -0.00, -1.00, 920.5, 705.2)"> </text><text xml:space="preserve" font-family="AndaleMono,Andale Mono" font-size="56.0" fill="#FEFFFE" transform="matrix(1.00, 0.00, -0.00, -1.00, 954.2, 705.2)">C</text><text xml:space="preserve" font-family="AndaleMono,Andale Mono" font-size="56.0" fill="#FEFFFE" transform="matrix(1.00, 0.00, -0.00, -1.00, 987.8, 705.2)">O</text><text xml:space="preserve" font-family="AndaleMono,Andale Mono" font-size="56.0" fill="#FEFFFE" transform="matrix(1.00, 0.00, -0.00, -1.00, 1021.4, 705.2)">L</text><text xml:space="preserve" font-family="AndaleMono,Andale Mono" font-size="56.0" fill="#FEFFFE" transform="matrix(1.00, 0.00, -0.00, -1.00, 1055.0, 705.2)">L</text><text xml:space="preserve" font-family="AndaleMono,Andale Mono" font-size="56.0" fill="#FEFFFE" transform="matrix(1.00, 0.00, -0.00, -1.00, 1088.6, 705.2)">E</text><text xml:space="preserve" font-family="AndaleMono,Andale Mono" font-size="56.0" fill="#FEFFFE" transform="matrix(1.00, 0.00, -0.00, -1.00, 1122.2, 705.2)">C</text><text xml:space="preserve" font-family="AndaleMono,Andale Mono" font-size="56.0" fill="#FEFFFE" transform="matrix(1.00, 0.00, -0.00, -1.00, 1155.8, 705.2)">T</text><text xml:space="preserve" font-family="AndaleMono,Andale Mono" font-size="56.0" fill="#FEFFFE" transform="matrix(1.00, 0.00, -0.00, -1.00, 1189.4, 705.2)">I</text><text xml:space="preserve" font-family="AndaleMono,Andale Mono" font-size="56.0" fill="#FEFFFE" transform="matrix(1.00, 0.00, -0.00, -1.00, 1223.0, 705.2)">O</text><text xml:space="preserve" font-family="AndaleMono,Andale Mono" font-size="56.0" fill="#FEFFFE" transform="matrix(1.00, 0.00, -0.00, -1.00, 1256.7, 705.2)">N</text><text xml:space="preserve" font-family="AndaleMono,Andale Mono" font-size="56.0" fill="#FEFFFE" transform="matrix(1.00, 0.00, -0.00, -1.00, 1290.3, 705.2)">:</text><text xml:space="preserve" font-family="AndaleMono,Andale Mono" font-size="56.0" fill="#51A7F9" transform="matrix(1.00, 0.00, -0.00, -1.00, 113.9, 552.9)">T</text><text xml:space="preserve" font-family="AndaleMono,Andale Mono" font-size="56.0" fill="#51A7F9" transform="matrix(1.00, 0.00, -0.00, -1.00, 147.5, 552.9)">A</text><text xml:space="preserve" font-family="AndaleMono,Andale Mono" font-size="56.0" fill="#51A7F9" transform="matrix(1.00, 0.00, -0.00, -1.00, 181.1, 552.9)">K</text><text xml:space="preserve" font-family="AndaleMono,Andale Mono" font-size="56.0" fill="#51A7F9" transform="matrix(1.00, 0.00, -0.00, -1.00, 214.7, 552.9)">E</text><text xml:space="preserve" font-family="AndaleMono,Andale Mono" font-size="56.0" fill="#FEFFFE" transform="matrix(1.00, 0.00, -0.00, -1.00, 248.3, 552.9)">,</text><text xml:space="preserve" font-family="AndaleMono,Andale Mono" font-size="56.0" fill="#FEFFFE" transform="matrix(1.00, 0.00, -0.00, -1.00, 281.9, 552.9)"> </text><text xml:space="preserve" font-family="AndaleMono,Andale Mono" font-size="56.0" fill="#51A7F9" transform="matrix(1.00, 0.00, -0.00, -1.00, 315.5, 552.9)">T</text><text xml:space="preserve" font-family="AndaleMono,Andale Mono" font-size="56.0" fill="#51A7F9" transform="matrix(1.00, 0.00, -0.00, -1.00, 349.1, 552.9)">A</text><text xml:space="preserve" font-family="AndaleMono,Andale Mono" font-size="56.0" fill="#51A7F9" transform="matrix(1.00, 0.00, -0.00, -1.00, 382.7, 552.9)">K</text><text xml:space="preserve" font-family="AndaleMono,Andale Mono" font-size="56.0" fill="#51A7F9" transform="matrix(1.00, 0.00, -0.00, -1.00, 416.3, 552.9)">E</text><text xml:space="preserve" font-family="AndaleMono,Andale Mono" font-size="56.0" fill="#51A7F9" transform="matrix(1.00, 0.00, -0.00, -1.00, 450.0, 552.9)">W</text><text xml:space="preserve" font-family="AndaleMono,Andale Mono" font-size="56.0" fill="#51A7F9" transform="matrix(1.00, 0.00, -0.00, -1.00, 483.6, 552.9)">H</text><text xml:space="preserve" font-family="AndaleMono,Andale Mono" font-size="56.0" fill="#51A7F9" transform="matrix(1.00, 0.00, -0.00, -1.00, 517.2, 552.9)">I</text><text xml:space="preserve" font-family="AndaleMono,Andale Mono" font-size="56.0" fill="#51A7F9" transform="matrix(1.00, 0.00, -0.00, -1.00, 550.8, 552.9)">L</text><text xml:space="preserve" font-family="AndaleMono,Andale Mono" font-size="56.0" fill="#51A7F9" transform="matrix(1.00, 0.00, -0.00, -1.00, 584.4, 552.9)">E</text><text xml:space="preserve" font-family="AndaleMono,Andale Mono" font-size="56.0" fill="#FEFFFE" transform="matrix(1.00, 0.00, -0.00, -1.00, 618.0, 552.9)">,</text><text xml:space="preserve" font-family="AndaleMono,Andale Mono" font-size="56.0" fill="#FEFFFE" transform="matrix(1.00, 0.00, -0.00, -1.00, 651.6, 552.9)"> </text><text xml:space="preserve" font-family="AndaleMono,Andale Mono" font-size="56.0" fill="#FEFFFE" transform="matrix(1.00, 0.00, -0.00, -1.00, 685.2, 552.9)"> </text><text xml:space="preserve" font-family="AndaleMono,Andale Mono" font-size="56.0" fill="#51A7F9" transform="matrix(1.00, 0.00, -0.00, -1.00, 113.9, 489.9)">G</text><text xml:space="preserve" font-family="AndaleMono,Andale Mono" font-size="56.0" fill="#51A7F9" transform="matrix(1.00, 0.00, -0.00, -1.00, 147.5, 489.9)">R</text><text xml:space="preserve" font-family="AndaleMono,Andale Mono" font-size="56.0" fill="#51A7F9" transform="matrix(1.00, 0.00, -0.00, -1.00, 181.1, 489.9)">O</text><text xml:space="preserve" font-family="AndaleMono,Andale Mono" font-size="56.0" fill="#51A7F9" transform="matrix(1.00, 0.00, -0.00, -1.00, 214.7, 489.9)">U</text><text xml:space="preserve" font-family="AndaleMono,Andale Mono" font-size="56.0" fill="#51A7F9" transform="matrix(1.00, 0.00, -0.00, -1.00, 248.3, 489.9)">P</text><text xml:space="preserve" font-family="AndaleMono,Andale Mono" font-size="56.0" fill="#51A7F9" transform="matrix(1.00, 0.00, -0.00, -1.00, 281.9, 489.9)">E</text><text xml:space="preserve" font-family="AndaleMono,Andale Mono" font-size="56.0" fill="#51A7F9" transform="matrix(1.00, 0.00, -0.00, -1.00, 315.5, 489.9)">D</text><text xml:space="preserve" font-family="AndaleMono,Andale Mono" font-size="56.0" fill="#FEFFFE" transform="matrix(1.00, 0.00, -0.00, -1.00, 349.1, 489.9)">,</text><text xml:space="preserve" font-family="AndaleMono,Andale Mono" font-size="56.0" fill="#FEFFFE" transform="matrix(1.00, 0.00, -0.00, -1.00, 382.7, 489.9)"> </text><text xml:space="preserve" font-family="AndaleMono,Andale Mono" font-size="56.0" fill="#FEFFFE" transform="matrix(1.00, 0.00, -0.00, -1.00, 416.3, 489.9)"> </text><text xml:space="preserve" font-family="AndaleMono,Andale Mono" font-size="56.0" fill="#51A7F9" transform="matrix(1.00, 0.00, -0.00, -1.00, 113.9, 426.9)">D</text><text xml:space="preserve" font-family="AndaleMono,Andale Mono" font-size="56.0" fill="#51A7F9" transform="matrix(1.00, 0.00, -0.00, -1.00, 147.5, 426.9)">R</text><text xml:space="preserve" font-family="AndaleMono,Andale Mono" font-size="56.0" fill="#51A7F9" transform="matrix(1.00, 0.00, -0.00, -1.00, 181.1, 426.9)">O</text><text xml:space="preserve" font-family="AndaleMono,Andale Mono" font-size="56.0" fill="#51A7F9" transform="matrix(1.00, 0.00, -0.00, -1.00, 214.7, 426.9)">P</text><text xml:space="preserve" font-family="AndaleMono,Andale Mono" font-size="56.0" fill="#FEFFFE" transform="matrix(1.00, 0.00, -0.00, -1.00, 248.3, 426.9)">,</text><text xml:space="preserve" font-family="AndaleMono,Andale Mono" font-size="56.0" fill="#FEFFFE" transform="matrix(1.00, 0.00, -0.00, -1.00, 281.9, 426.9)"> </text><text xml:space="preserve" font-family="AndaleMono,Andale Mono" font-size="56.0" fill="#51A7F9" transform="matrix(1.00, 0.00, -0.00, -1.00, 315.5, 426.9)">D</text><text xml:space="preserve" font-family="AndaleMono,Andale Mono" font-size="56.0" fill="#51A7F9" transform="matrix(1.00, 0.00, -0.00, -1.00, 349.1, 426.9)">R</text><text xml:space="preserve" font-family="AndaleMono,Andale Mono" font-size="56.0" fill="#51A7F9" transform="matrix(1.00, 0.00, -0.00, -1.00, 382.7, 426.9)">O</text><text xml:space="preserve" font-family="AndaleMono,Andale Mono" font-size="56.0" fill="#51A7F9" transform="matrix(1.00, 0.00, -0.00, -1.00, 416.3, 426.9)">P</text><text xml:space="preserve" font-family="AndaleMono,Andale Mono" font-size="56.0" fill="#51A7F9" transform="matrix(1.00, 0.00, -0.00, -1.00, 450.0, 426.9)">W</text><text xml:space="preserve" font-family="AndaleMono,Andale Mono" font-size="56.0" fill="#51A7F9" transform="matrix(1.00, 0.00, -0.00, -1.00, 483.6, 426.9)">H</text><text xml:space="preserve" font-family="AndaleMono,Andale Mono" font-size="56.0" fill="#51A7F9" transform="matrix(1.00, 0.00, -0.00, -1.00, 517.2, 426.9)">I</text><text xml:space="preserve" font-family="AndaleMono,Andale Mono" font-size="56.0" fill="#51A7F9" transform="matrix(1.00, 0.00, -0.00, -1.00, 550.8, 426.9)">L</text><text xml:space="preserve" font-family="AndaleMono,Andale Mono" font-size="56.0" fill="#51A7F9" transform="matrix(1.00, 0.00, -0.00, -1.00, 584.4, 426.9)">E</text><text xml:space="preserve" font-family="AndaleMono,Andale Mono" font-size="56.0" fill="#FEFFFE" transform="matrix(1.00, 0.00, -0.00, -1.00, 618.0, 426.9)">,</text><text xml:space="preserve" font-family="AndaleMono,Andale Mono" font-size="56.0" fill="#FEFFFE" transform="matrix(1.00, 0.00, -0.00, -1.00, 651.6, 426.9)"> </text><text xml:space="preserve" font-family="AndaleMono,Andale Mono" font-size="56.0" fill="#FEFFFE" transform="matrix(1.00, 0.00, -0.00, -1.00, 685.2, 426.9)"> </text><text xml:space="preserve" font-family="AndaleMono,Andale Mono" font-size="56.0" fill="#51A7F9" transform="matrix(1.00, 0.00, -0.00, -1.00, 113.9, 363.9)">F</text><text xml:space="preserve" font-family="AndaleMono,Andale Mono" font-size="56.0" fill="#51A7F9" transform="matrix(1.00, 0.00, -0.00, -1.00, 147.5, 363.9)">I</text><text xml:space="preserve" font-family="AndaleMono,Andale Mono" font-size="56.0" fill="#51A7F9" transform="matrix(1.00, 0.00, -0.00, -1.00, 181.1, 363.9)">L</text><text xml:space="preserve" font-family="AndaleMono,Andale Mono" font-size="56.0" fill="#51A7F9" transform="matrix(1.00, 0.00, -0.00, -1.00, 214.7, 363.9)">T</text><text xml:space="preserve" font-family="AndaleMono,Andale Mono" font-size="56.0" fill="#51A7F9" transform="matrix(1.00, 0.00, -0.00, -1.00, 248.3, 363.9)">E</text><text xml:space="preserve" font-family="AndaleMono,Andale Mono" font-size="56.0" fill="#51A7F9" transform="matrix(1.00, 0.00, -0.00, -1.00, 281.9, 363.9)">R</text><text xml:space="preserve" font-family="AndaleMono,Andale Mono" font-size="56.0" fill="#FEFFFE" transform="matrix(1.00, 0.00, -0.00, -1.00, 315.5, 363.9)">,</text><text xml:space="preserve" font-family="AndaleMono,Andale Mono" font-size="56.0" fill="#FEFFFE" transform="matrix(1.00, 0.00, -0.00, -1.00, 349.1, 363.9)"> </text><text xml:space="preserve" font-family="AndaleMono,Andale Mono" font-size="56.0" fill="#51A7F9" transform="matrix(1.00, 0.00, -0.00, -1.00, 382.7, 363.9)">F</text><text xml:space="preserve" font-family="AndaleMono,Andale Mono" font-size="56.0" fill="#51A7F9" transform="matrix(1.00, 0.00, -0.00, -1.00, 416.3, 363.9)">I</text><text xml:space="preserve" font-family="AndaleMono,Andale Mono" font-size="56.0" fill="#51A7F9" transform="matrix(1.00, 0.00, -0.00, -1.00, 449.9, 363.9)">L</text><text xml:space="preserve" font-family="AndaleMono,Andale Mono" font-size="56.0" fill="#51A7F9" transform="matrix(1.00, 0.00, -0.00, -1.00, 483.6, 363.9)">T</text><text xml:space="preserve" font-family="AndaleMono,Andale Mono" font-size="56.0" fill="#51A7F9" transform="matrix(1.00, 0.00, -0.00, -1.00, 517.2, 363.9)">E</text><text xml:space="preserve" font-family="AndaleMono,Andale Mono" font-size="56.0" fill="#51A7F9" transform="matrix(1.00, 0.00, -0.00, -1.00, 550.8, 363.9)">R</text><text xml:space="preserve" font-family="AndaleMono,Andale Mono" font-size="56.0" fill="#51A7F9" transform="matrix(1.00, 0.00, -0.00, -1.00, 584.4, 363.9)">N</text><text xml:space="preserve" font-family="AndaleMono,Andale Mono" font-size="56.0" fill="#51A7F9" transform="matrix(1.00, 0.00, -0.00, -1.00, 618.0, 363.9)">O</text><text xml:space="preserve" font-family="AndaleMono,Andale Mono" font-size="56.0" fill="#51A7F9" transform="matrix(1.00, 0.00, -0.00, -1.00, 651.6, 363.9)">T</text><text xml:space="preserve" font-family="AndaleMono,Andale Mono" font-size="56.0" fill="#FEFFFE" transform="matrix(1.00, 0.00, -0.00, -1.00, 685.2, 363.9)">,</text><text xml:space="preserve" font-family="AndaleMono,Andale Mono" font-size="56.0" fill="#FEFFFE" transform="matrix(1.00, 0.00, -0.00, -1.00, 718.8, 363.9)"> </text><text xml:space="preserve" font-family="AndaleMono,Andale Mono" font-size="56.0" fill="#51A7F9" transform="matrix(1.00, 0.00, -0.00, -1.00, 752.4, 363.9)">M</text><text xml:space="preserve" font-family="AndaleMono,Andale Mono" font-size="56.0" fill="#51A7F9" transform="matrix(1.00, 0.00, -0.00, -1.00, 786.0, 363.9)">A</text><text xml:space="preserve" font-family="AndaleMono,Andale Mono" font-size="56.0" fill="#51A7F9" transform="matrix(1.00, 0.00, -0.00, -1.00, 819.6, 363.9)">P</text><text xml:space="preserve" font-family="AndaleMono,Andale Mono" font-size="56.0" fill="#FEFFFE" transform="matrix(1.00, 0.00, -0.00, -1.00, 853.2, 363.9)">,</text><text xml:space="preserve" font-family="AndaleMono,Andale Mono" font-size="56.0" fill="#FEFFFE" transform="matrix(1.00, 0.00, -0.00, -1.00, 886.8, 363.9)"> </text><text xml:space="preserve" font-family="AndaleMono,Andale Mono" font-size="56.0" fill="#FEFFFE" transform="matrix(1.00, 0.00, -0.00, -1.00, 920.4, 363.9)">…</text><g><clipPath id="clip0x6080008b0b00"><path d="M 1214.0 770.0 L 2101.0 770.0 L 2101.0 -117.0 L 1214.0 -117.0 Z M 1214.3 770.1 "></path></clipPath><g clip-path="url(#clip0x6080008b0b00)"><image xlink:href="892608C59458D574574AEC53AAFD563A.png" width="256.00" height="256.00" transform="matrix(3.46, 0.00, -0.00, -3.46, 1214.3, 770.1)"></image></g></g></g></svg>